HIERARCHY
ROOT Hips
{
	OFFSET 0.000000 0.794594 0.001814
	CHANNELS 6 Xposition Yposition Zposition Zrotation Xrotation Yrotation
	JOINT Spine
	{
		OFFSET -0.000000 0.051920 0.010783
		CHANNELS 3 Zrotation Xrotation Yrotation
		JOINT Chest
		{
			OFFSET 0.000000 0.111800 0.002643
			CHANNELS 3 Zrotation Xrotation Yrotation
			JOINT UpperChest
			{
				OFFSET 0.000011 0.124994 0.000757
				CHANNELS 3 Zrotation Xrotation Yrotation
				JOINT Neck
				{
					OFFSET 0.000112 0.117645 -0.020286
					CHANNELS 3 Zrotation Xrotation Yrotation
					JOINT Head
					{
						OFFSET 0.000009 0.074358 -0.000161
						CHANNELS 3 Zrotation Xrotation Yrotation
						JOINT LeftEye
						{
							OFFSET 0.019846 0.051735 0.040589
							CHANNELS 3 Zrotation Xrotation Yrotation
							End Site
							{
								OFFSET -0.000199 0.054090 0.042333
							}
						}
						JOINT RightEye
						{
							OFFSET -0.020226 0.051740 0.040395
							CHANNELS 3 Zrotation Xrotation Yrotation
							End Site
							{
								OFFSET -0.000199 0.054090 0.042333
							}
						}
					}
				}
				JOINT LeftShoulder
				{
					OFFSET 0.022481 0.089795 -0.017340
					CHANNELS 3 Zrotation Xrotation Yrotation
					JOINT LeftUpperArm
					{
						OFFSET 0.087730 -0.000010 0.000425
						CHANNELS 3 Zrotation Xrotation Yrotation
						JOINT LeftLowerArm
						{
							OFFSET 0.210364 0.001461 0.000713
							CHANNELS 3 Zrotation Xrotation Yrotation
							JOINT LeftHand
							{
								OFFSET 0.205444 0.001377 0.000711
								CHANNELS 3 Zrotation Xrotation Yrotation
								JOINT LeftIndexProximal
								{
									OFFSET 0.064499 0.001525 0.020305
									CHANNELS 3 Zrotation Xrotation Yrotation
									JOINT LeftIndexIntermediate
									{
										OFFSET 0.033222 0.000012 0.000212
										CHANNELS 3 Zrotation Xrotation Yrotation
										JOINT LeftIndexDistal
										{
											OFFSET 0.020455 0.000007 0.000130
											CHANNELS 3 Zrotation Xrotation Yrotation
											End Site
											{
												OFFSET 0.020455 0.000007 0.000130
											}
										}
									}
								}
								JOINT LeftLittleProximal
								{
									OFFSET 0.062854 -0.001936 -0.027845
									CHANNELS 3 Zrotation Xrotation Yrotation
									JOINT LeftLittleIntermediate
									{
										OFFSET 0.031399 0.000011 0.000200
										CHANNELS 3 Zrotation Xrotation Yrotation
										JOINT LeftLittleDistal
										{
											OFFSET 0.018096 0.000006 0.000115
											CHANNELS 3 Zrotation Xrotation Yrotation
											End Site
											{
												OFFSET 0.018096 0.000006 0.000115
											}
										}
									}
								}
								JOINT LeftMiddleProximal
								{
									OFFSET 0.066609 0.003801 0.003549
									CHANNELS 3 Zrotation Xrotation Yrotation
									JOINT LeftMiddleIntermediate
									{
										OFFSET 0.037005 0.000013 0.000236
										CHANNELS 3 Zrotation Xrotation Yrotation
										JOINT LeftMiddleDistal
										{
											OFFSET 0.022829 0.000008 0.000145
											CHANNELS 3 Zrotation Xrotation Yrotation
											End Site
											{
												OFFSET 0.022829 0.000008 0.000145
											}
										}
									}
								}
								JOINT LeftRingProximal
								{
									OFFSET 0.066900 0.003343 -0.012193
									CHANNELS 3 Zrotation Xrotation Yrotation
									JOINT LeftRingIntermediate
									{
										OFFSET 0.034327 0.000012 0.000219
										CHANNELS 3 Zrotation Xrotation Yrotation
										JOINT LeftRingDistal
										{
											OFFSET 0.019811 0.000007 0.000126
											CHANNELS 3 Zrotation Xrotation Yrotation
											End Site
											{
												OFFSET 0.019811 0.000007 0.000126
											}
										}
									}
								}
								JOINT LeftThumbProximal
								{
									OFFSET 0.001848 -0.006641 0.017858
									CHANNELS 3 Zrotation Xrotation Yrotation
									JOINT LeftThumbIntermediate
									{
										OFFSET 0.030326 -0.003605 0.035110
										CHANNELS 3 Zrotation Xrotation Yrotation
										JOINT LeftThumbDistal
										{
											OFFSET 0.019149 -0.004135 0.020870
											CHANNELS 3 Zrotation Xrotation Yrotation
											End Site
											{
												OFFSET 0.019149 -0.004134 0.020871
											}
										}
									}
								}
							}
						}
					}
				}
				JOINT RightShoulder
				{
					OFFSET -0.022291 0.089803 -0.017557
					CHANNELS 3 Zrotation Xrotation Yrotation
					JOINT RightUpperArm
					{
						OFFSET -0.087729 0.000010 -0.000425
						CHANNELS 3 Zrotation Xrotation Yrotation
						JOINT RightLowerArm
						{
							OFFSET -0.210401 0.000107 -0.000861
							CHANNELS 3 Zrotation Xrotation Yrotation
							JOINT RightHand
							{
								OFFSET -0.205447 0.000040 -0.000840
								CHANNELS 3 Zrotation Xrotation Yrotation
								JOINT RightIndexProximal
								{
									OFFSET -0.064690 0.001511 0.019688
									CHANNELS 3 Zrotation Xrotation Yrotation
									JOINT RightIndexIntermediate
									{
										OFFSET -0.033222 0.000005 -0.000106
										CHANNELS 3 Zrotation Xrotation Yrotation
										JOINT RightIndexDistal
										{
											OFFSET -0.020455 0.000003 -0.000065
											CHANNELS 3 Zrotation Xrotation Yrotation
											End Site
											{
												OFFSET -0.020455 0.000003 -0.000065
											}
										}
									}
								}
								JOINT RightLittleProximal
								{
									OFFSET -0.062585 -0.001949 -0.028444
									CHANNELS 3 Zrotation Xrotation Yrotation
									JOINT RightLittleIntermediate
									{
										OFFSET -0.031399 0.000005 -0.000100
										CHANNELS 3 Zrotation Xrotation Yrotation
										JOINT RightLittleDistal
										{
											OFFSET -0.018096 0.000003 -0.000057
											CHANNELS 3 Zrotation Xrotation Yrotation
											End Site
											{
												OFFSET -0.018096 0.000003 -0.000057
											}
										}
									}
								}
								JOINT RightMiddleProximal
								{
									OFFSET -0.066640 0.003787 0.002913
									CHANNELS 3 Zrotation Xrotation Yrotation
									JOINT RightMiddleIntermediate
									{
										OFFSET -0.037006 0.000005 -0.000118
										CHANNELS 3 Zrotation Xrotation Yrotation
										JOINT RightMiddleDistal
										{
											OFFSET -0.022829 0.000003 -0.000072
											CHANNELS 3 Zrotation Xrotation Yrotation
											End Site
											{
												OFFSET -0.022829 0.000003 -0.000072
											}
										}
									}
								}
								JOINT RightRingProximal
								{
									OFFSET -0.066782 0.003329 -0.012831
									CHANNELS 3 Zrotation Xrotation Yrotation
									JOINT RightRingIntermediate
									{
										OFFSET -0.034327 0.000005 -0.000109
										CHANNELS 3 Zrotation Xrotation Yrotation
										JOINT RightRingDistal
										{
											OFFSET -0.019810 0.000003 -0.000063
											CHANNELS 3 Zrotation Xrotation Yrotation
											End Site
											{
												OFFSET -0.019810 0.000003 -0.000063
											}
										}
									}
								}
								JOINT RightThumbProximal
								{
									OFFSET -0.002017 -0.006641 0.017839
									CHANNELS 3 Zrotation Xrotation Yrotation
									JOINT RightThumbIntermediate
									{
										OFFSET -0.032510 -0.005699 0.032803
										CHANNELS 3 Zrotation Xrotation Yrotation
										JOINT RightThumbDistal
										{
											OFFSET -0.020784 -0.005081 0.019013
											CHANNELS 3 Zrotation Xrotation Yrotation
											End Site
											{
												OFFSET -0.020784 -0.005081 0.019013
											}
										}
									}
								}
							}
						}
					}
				}
			}
		}
	}
	JOINT LeftUpperLeg
	{
		OFFSET 0.077122 -0.039594 -0.005714
		CHANNELS 3 Zrotation Xrotation Yrotation
		JOINT LeftLowerLeg
		{
			OFFSET 0.000000 -0.343087 0.003694
			CHANNELS 3 Zrotation Xrotation Yrotation
			JOINT LeftFoot
			{
				OFFSET 0.000000 -0.401029 -0.031329
				CHANNELS 3 Zrotation Xrotation Yrotation
				JOINT LeftToes
				{
					OFFSET 0.000000 -0.001594 0.127952
					CHANNELS 3 Zrotation Xrotation Yrotation
					End Site
					{
						OFFSET -0.000000 -0.001594 0.127952
					}
				}
			}
		}
	}
	JOINT RightUpperLeg
	{
		OFFSET -0.077122 -0.039594 -0.005714
		CHANNELS 3 Zrotation Xrotation Yrotation
		JOINT RightLowerLeg
		{
			OFFSET -0.000000 -0.343087 0.003695
			CHANNELS 3 Zrotation Xrotation Yrotation
			JOINT RightFoot
			{
				OFFSET 0.000000 -0.401029 -0.031326
				CHANNELS 3 Zrotation Xrotation Yrotation
				JOINT RightToes
				{
					OFFSET 0.000000 -0.001593 0.127952
					CHANNELS 3 Zrotation Xrotation Yrotation
					End Site
					{
						OFFSET -0.000000 -0.001593 0.127952
					}
				}
			}
		}
	}
}
MOTION
Frames: 5
Frame Time: 0.016667
0.000000 0.794594 0.001814 -0.000000 0.000000 -0.000000 0.000000 -0.000000 0.000000 0.000000 0.000000 0.000000 -0.000000 -0.000000 -0.000000 -0.000000 -0.000000 -0.000000 -0.000000 0.000001 -0.000000 0.000000 -0.000001 -0.000000 -0.000000 -0.000003 -0.000000 -0.000000 -0.000000 -0.000000 -0.000000 0.000003 0.000000 0.000000 -0.000001 -0.000000 0.000000 0.000002 -0.000000 0.000000 0.000000 -0.000000 0.000000 0.000000 -0.000000 0.000000 0.000000 -0.000000 0.000000 0.000000 -0.000000 0.000000 -0.000000 -0.000000 0.000000 0.000000 -0.000000 0.000000 0.000000 -0.000000 0.000000 0.000000 -0.000000 0.000000 0.000000 -0.000000 0.000000 0.000000 -0.000000 0.000000 -0.000000 -0.000000 0.000000 0.000000 -0.000000 -0.000001 0.000001 0.000000 -0.000004 -0.000003 0.000000 -0.000002 -0.000002 -0.000001 -0.000000 -0.000001 -0.000000 -0.000000 -0.000000 0.000000 0.000000 0.000000 0.000000 -0.000000 0.000000 0.000000 0.000000 0.000000 -0.000000 0.000000 0.000000 0.000000 0.000000 0.000000 0.000000 0.000000 0.000000 -0.000000 0.000000 -0.000000 0.000000 0.000000 -0.000000 0.000000 0.000000 0.000000 -0.000000 0.000000 -0.000000 0.000000 -0.000000 -0.000000 0.000000 0.000000 -0.000000 0.000000 0.000000 0.000000 -0.000000 0.000000 0.000000 0.000000 -0.000000 -0.000001 0.000005 -0.000000 0.000000 -0.000000 0.000001 -0.000001 0.000004 0.000000 -0.000000 0.000000 -0.000000 -0.000000 0.000000 0.000000 -0.000000 -0.000000 -0.000000 -0.000000 0.000000 -0.000000 0.000000 0.000000 -0.000000 -0.000000 0.000000 -0.000000 -0.000000 -0.000000 -0.000000 -0.000000 -0.000000 
-0.002301 0.791763 0.015186 -1.414388 -0.044969 -7.709754 -1.599501 0.878731 -0.284296 3.590966 -3.844948 -0.042297 -0.103852 -3.584396 0.067445 -4.959667 -2.622592 -1.608984 -10.284591 8.906869 5.498216 0.000066 0.000014 0.000017 0.000066 0.000013 0.000017 -4.923508 -0.059647 -0.687546 -24.003853 57.180551 -49.866409 5.586151 1.668804 -71.252062 -13.078028 -4.927980 -8.623683 -14.449354 -2.316586 4.063881 -26.368333 -0.480762 -4.658177 -26.368719 -0.480759 -4.658110 -16.783069 4.100124 -12.826018 -26.484557 0.375489 -3.716013 -26.485489 0.375524 -3.715974 -17.976093 -0.600445 -0.881727 -26.484999 0.375570 -3.716195 -26.485378 0.375587 -3.716167 -17.665378 1.095763 -5.108576 -26.485109 0.375618 -3.716221 -26.485425 0.375577 -3.716152 10.247493 -6.352291 19.141521 -9.602618 4.581040 19.616030 -7.502195 3.546073 16.061675 3.472170 -0.061161 0.504262 36.718110 61.156947 44.955581 -1.095515 -0.352794 30.502942 4.537314 30.182910 10.259048 31.942343 -2.884159 0.497895 31.579042 -0.318597 5.576487 31.579766 -0.318586 5.576499 31.118373 4.156784 9.335074 31.713364 0.652159 4.407463 31.713989 0.652159 4.407439 31.915179 -1.334973 1.655291 31.713593 0.652211 4.407663 31.713941 0.652209 4.407650 31.713630 0.651963 4.407367 31.713661 0.652222 4.407655 31.713945 0.652172 4.407673 -6.913650 -4.802220 -13.871377 4.856159 1.366875 -23.927831 3.634762 0.788377 -19.580686 0.519857 -6.760926 -6.647634 0.008624 17.447553 0.025585 -4.571156 -7.981237 2.023511 -0.000000 -0.000000 0.000000 1.988835 -0.383366 26.147346 -0.002438 12.817256 -0.018062 6.130604 -5.006997 -2.380219 -0.000000 -0.000000 -0.000001 
-0.002278 0.791500 0.015232 -1.419004 -0.042737 -7.704021 -1.601382 0.885873 -0.271105 3.594996 -3.837436 -0.031151 -0.099311 -3.577506 0.079137 -4.960361 -2.622707 -1.606214 -10.263107 8.921635 5.553779 -0.002032 0.010976 -0.006123 -0.002033 0.010973 -0.006123 -4.923528 -0.059653 -0.687551 -27.345415 55.412638 -46.369304 5.498964 1.642015 -70.853138 -13.043021 -4.895750 -8.618317 -14.449347 -2.316589 4.063907 -26.368323 -0.480753 -4.658190 -26.368681 -0.480764 -4.658131 -16.783079 4.100112 -12.825980 -26.484523 0.375485 -3.716015 -26.485450 0.375527 -3.715974 -17.976078 -0.600462 -0.881701 -26.484975 0.375575 -3.716191 -26.485366 0.375590 -3.716147 -17.665371 1.095770 -5.108552 -26.485090 0.375593 -3.716212 -26.485370 0.375593 -3.716153 10.247492 -6.352278 19.141539 -9.602586 4.581030 19.616013 -7.502189 3.546069 16.061683 3.472176 -0.061158 0.504257 38.064296 59.797008 43.752822 -1.106995 -0.363296 30.903614 4.555771 30.230383 10.195383 31.942353 -2.884155 0.497882 31.579048 -0.318606 5.576483 31.579728 -0.318564 5.576487 31.118373 4.156795 9.335073 31.713350 0.652159 4.407449 31.713989 0.652138 4.407456 31.915169 -1.334963 1.655304 31.713583 0.652220 4.407657 31.713924 0.652209 4.407635 31.713617 0.651983 4.407355 31.713641 0.652226 4.407648 31.713928 0.652188 4.407692 -6.913652 -4.802190 -13.871359 4.856159 1.366866 -23.927829 3.634774 0.788369 -19.580691 0.508319 -6.908438 -6.657676 0.004416 17.693945 0.025622 -4.569932 -8.080859 2.018572 -0.000000 0.000000 -0.000001 2.048891 -0.496742 26.141875 -0.002927 13.061439 -0.018554 6.131860 -5.125937 -2.366658 -0.000000 -0.000002 -0.000001 
-0.002256 0.790833 0.015255 -1.417282 -0.035184 -7.685487 -1.593891 0.920096 -0.242598 3.605128 -3.814081 0.000006 -0.087805 -3.555917 0.112092 -4.961182 -2.623198 -1.603452 -10.171745 8.955575 5.627781 -0.007715 0.043260 -0.023608 -0.007716 0.043259 -0.023608 -4.923529 -0.059654 -0.687546 -29.886647 53.573091 -42.646711 6.019911 1.793671 -73.169283 -12.982265 -4.797889 -8.630460 -14.449359 -2.316602 4.063919 -26.368306 -0.480738 -4.658195 -26.368669 -0.480769 -4.658116 -16.783083 4.100123 -12.825989 -26.484552 0.375483 -3.716015 -26.485426 0.375522 -3.715976 -17.976088 -0.600450 -0.881691 -26.484975 0.375584 -3.716190 -26.485348 0.375571 -3.716151 -17.665388 1.095766 -5.108552 -26.485063 0.375613 -3.716208 -26.485402 0.375573 -3.716162 10.247480 -6.352256 19.141547 -9.602609 4.581011 19.615994 -7.502188 3.546089 16.061666 3.472176 -0.061157 0.504264 39.473118 57.848144 40.568353 -1.239271 -0.502007 35.802690 4.598263 30.340394 10.027464 31.942346 -2.884173 0.497864 31.579052 -0.318574 5.576505 31.579680 -0.318593 5.576496 31.118397 4.156781 9.335059 31.713326 0.652164 4.407459 31.713965 0.652153 4.407457 31.915182 -1.334970 1.655271 31.713583 0.652207 4.407666 31.713883 0.652221 4.407647 31.713634 0.651973 4.407350 31.713617 0.652208 4.407664 31.713900 0.652177 4.407668 -6.913648 -4.802211 -13.871383 4.856154 1.366861 -23.927836 3.634762 0.788378 -19.580686 0.471646 -7.074959 -6.682717 0.016907 18.091701 0.026025 -4.570888 -8.316607 2.002071 -0.000000 0.000000 0.000000 2.194670 -0.804275 26.124683 -0.003127 13.697990 -0.019858 6.135269 -5.427371 -2.332109 0.000000 -0.000000 -0.000000 
-0.002234 0.789970 0.015248 -1.412805 -0.029244 -7.653610 -1.578543 0.978065 -0.204024 3.620439 -3.776169 0.049148 -0.070341 -3.520789 0.164177 -4.961706 -2.623130 -1.600842 -10.010050 9.021457 5.715502 -0.016714 0.094554 -0.051471 -0.016715 0.094555 -0.051471 -4.923528 -0.059646 -0.687550 -32.553245 51.016763 -38.688801 6.814149 1.988953 -76.473195 -12.893127 -4.647035 -8.663782 -14.449368 -2.316589 4.063906 -26.368331 -0.480754 -4.658192 -26.368668 -0.480781 -4.658119 -16.783093 4.100124 -12.825993 -26.484537 0.375484 -3.716011 -26.485419 0.375526 -3.715983 -17.976097 -0.600450 -0.881700 -26.484998 0.375575 -3.716198 -26.485337 0.375574 -3.716163 -17.665405 1.095770 -5.108557 -26.485081 0.375612 -3.716209 -26.485346 0.375558 -3.716168 10.247443 -6.352276 19.141554 -9.602601 4.581016 19.615974 -7.502176 3.546071 16.061646 3.472176 -0.061155 0.504258 40.832432 55.349046 36.523146 -1.400525 -0.743021 43.172584 4.643540 30.488107 9.784024 31.942397 -2.884168 0.497878 31.579024 -0.318594 5.576510 31.579677 -0.318562 5.576499 31.118417 4.156783 9.335055 31.713333 0.652157 4.407452 31.713938 0.652166 4.407451 31.915217 -1.334981 1.655276 31.713572 0.652231 4.407674 31.713846 0.652215 4.407657 31.713665 0.651972 4.407353 31.713634 0.652224 4.407655 31.713880 0.652158 4.407685 -6.913624 -4.802217 -13.871372 4.856174 1.366849 -23.927790 3.634773 0.788382 -19.580687 0.421461 -7.346429 -6.722000 0.026351 18.656501 0.026483 -4.573372 -8.612752 1.979869 0.000000 0.000000 0.000001 2.375675 -1.193650 26.095303 -0.001918 14.503020 -0.021438 6.139887 -5.805773 -2.288505 -0.000000 -0.000001 0.000000 
